<?xml version="1.0" encoding="UTF-8" standalone="no"?>
<svg width="117px" height="36px" viewBox="0 0 117 36" version="1.1" xmlns="http://www.w3.org/2000/svg" xmlns:xlink="http://www.w3.org/1999/xlink" xmlns:sketch="http://www.bohemiancoding.com/sketch/ns">
    <!-- Generator: Sketch 3.4.4 (17249) - http://www.bohemiancoding.com/sketch -->
    <title>logo</title>
    <desc>Created with Sketch.</desc>
    <defs></defs>
    <g id="Page-1" stroke="none" stroke-width="1" fill="none" fill-rule="evenodd" sketch:type="MSPage">
        <g id="frankly.home" sketch:type="MSArtboardGroup" transform="translate(-52.000000, -30.000000)">
            <g id="Hero-+-Promo-Tile" sketch:type="MSLayerGroup" transform="translate(-41.000000, 0.000000)">
                <g id="Hero" transform="translate(41.000000, 0.000000)" sketch:type="MSShapeGroup">
                    <g id="nav" transform="translate(52.000000, 26.000000)">
                        <g id="logo" transform="translate(0.000000, 4.000000)">
                            <path d="M112.94128,5.20788462 L97.697951,5.20788462 C96.2599273,5.20788462 95.0940935,4.04567308 95.0940935,2.61173077 C95.0940935,1.17813462 96.2599273,0.0155769231 97.697951,0.0155769231 L112.94128,0.0155769231 C114.379304,0.0155769231 115.545138,1.17813462 115.545138,2.61173077 C115.545138,4.04567308 114.379304,5.20788462 112.94128,5.20788462" id="Fill-1" fill="#FD3C1C"></path>
                            <path d="M114.301015,14.7715962 L107.868966,14.7715962 C106.430942,14.7715962 105.265108,13.6092115 105.265108,12.1754423 C105.265108,10.7416731 106.430942,9.57928846 107.868966,9.57928846 L114.301015,9.57928846 C115.739039,9.57928846 116.904872,10.7416731 116.904872,12.1754423 C116.904872,13.6092115 115.739039,14.7715962 114.301015,14.7715962" id="Fill-2" fill="#FD3C1C"></path>
                            <path d="M108.244616,21.7389808 C108.244616,23.3496346 106.935223,24.6553269 105.319616,24.6553269 C103.704182,24.6553269 102.394616,23.3496346 102.394616,21.7389808 C102.394616,20.1283269 103.704182,18.8226346 105.319616,18.8226346 C106.935223,18.8226346 108.244616,20.1283269 108.244616,21.7389808" id="Fill-3" fill="#FD3C1C"></path>
                            <path d="M7.19567359,7.44923077 C7.56542136,7.43105769 7.85531751,7.12696154 7.85531751,6.75796154 L7.85531751,4.78055769 C7.85531751,4.40636538 7.55656825,4.10330769 7.18404303,4.09084615 L5.95293917,4.08825 C2.69343027,4.08825 0.0508620178,6.723 0.0508620178,9.97286538 L0.0508620178,29.4414231 C0.0508620178,29.82375 0.361762611,30.1339038 0.745224036,30.1339038 L2.9907908,30.1339038 C3.37425223,30.1339038 3.68497923,29.82375 3.68497923,29.4414231 L3.68497923,15.5954423 L7.16095549,15.5954423 C7.54441691,15.5954423 7.85531751,15.2854615 7.85531751,14.9031346 L7.85531751,12.86775 C7.85531751,12.4854231 7.54441691,12.1754423 7.16095549,12.1754423 L3.68497923,12.1754423 L3.68324332,10.0185577 C3.68324332,9.85430769 3.69973442,9.70355769 3.72195401,9.59036538 C3.92696439,8.37588462 4.98378338,7.44923077 6.26019436,7.44923077 L7.19567359,7.44923077" id="Fill-4" fill="#FFFFFF"></path>
                            <path d="M18.1228487,11.9696538 C17.9926558,11.8408846 17.8293071,11.7688846 17.6338442,11.7688846 C17.3670356,11.7688846 16.943822,11.8052308 16.6080979,11.8703077 C15.6243605,12.0312692 14.7057196,12.4715769 13.8938368,12.9795577 L13.8938368,12.86775 C13.8938368,12.4854231 13.5829362,12.1754423 13.1994748,12.1754423 L11.1288872,12.1754423 C10.7454258,12.1754423 10.4345252,12.4854231 10.4345252,12.86775 L10.4345252,29.4415962 C10.4345252,29.8239231 10.7454258,30.1339038 11.1288872,30.1339038 L13.4619436,30.1339038 C13.845405,30.1339038 14.1563056,29.8239231 14.1563056,29.4415962 L14.1563056,18.9730385 C14.1563056,17.0335385 15.7333754,15.4611346 17.6786306,15.4611346 C18.0440386,15.4375962 18.3282062,15.1352308 18.3282062,14.7702115 L18.3282062,12.4611923 C18.3282062,12.2765192 18.2542567,12.0996346 18.1228487,11.9696538" id="Fill-5" fill="#FFFFFF"></path>
                            <path d="M35.1673531,14.6547692 C33.4356142,12.8357308 31.2731973,11.8633846 28.7445045,11.7687115 C28.6186513,11.7643846 28.3698961,11.7621346 28.3698961,11.7621346 C25.9076884,11.7621346 23.7685326,12.6654231 22.0116231,14.4469038 C20.1585445,16.2943269 19.216816,18.5524615 19.216816,21.1546731 C19.216816,23.643 20.0953576,25.8282692 21.8277908,27.6497308 C23.5439065,29.4544038 25.6769866,30.4168846 28.1671424,30.5112115 C28.2848368,30.5153654 28.3978442,30.5170962 28.510678,30.5170962 C30.6378561,30.5170962 32.5275623,29.8393269 34.1483769,28.4985 L34.1483769,29.4414231 C34.1483769,29.82375 34.4592774,30.1339038 34.8427389,30.1339038 L37.000816,30.1339038 C37.3842774,30.1339038 37.695178,29.82375 37.695178,29.4414231 L37.695178,21.1384038 C37.7861395,18.6621923 36.9357196,16.48125 35.1673531,14.6547692 M28.4592953,26.9276538 C25.3489006,26.9276538 22.8274985,24.2408077 22.8274985,21.1396154 C22.8274985,18.0385962 25.3489006,15.5244808 28.4592953,15.5244808 C31.5696899,15.5244808 34.091092,18.0385962 34.091092,21.1396154 C34.091092,24.2408077 31.5696899,26.9276538 28.4592953,26.9276538" id="Fill-6" fill="#FFFFFF"></path>
                            <path d="M48.3534614,11.7687115 C46.0598101,11.7687115 44.1169852,12.5626154 42.5787997,14.1282692 C41.0539807,15.6804231 40.280635,17.6432885 40.280635,19.9630385 L40.280635,29.4414231 C40.280635,29.82375 40.5915356,30.1339038 40.974997,30.1339038 L43.2207374,30.1339038 C43.6041988,30.1339038 43.9150994,29.82375 43.9150994,29.4414231 L43.9150994,19.73025 C43.9150994,18.5147308 44.3445623,17.4953077 45.2279644,16.6143462 C46.0995623,15.7456731 47.151,15.3051923 48.3534614,15.3051923 C49.5335297,15.3051923 50.5367092,15.7332115 51.4202849,16.6143462 C52.3234763,17.5146923 52.7626602,18.5341154 52.7626602,19.73025 L52.7626602,29.4414231 C52.7626602,29.82375 53.0735608,30.1339038 53.4570223,30.1339038 L55.7024154,30.1339038 C56.0860504,30.1339038 56.3967774,29.82375 56.3967774,29.4414231 L56.3967774,19.9630385 C56.3967774,17.6432885 55.6236053,15.6804231 54.0987864,14.1282692 C52.5606009,12.5626154 50.6273234,11.7687115 48.3534614,11.7687115" id="Fill-7" fill="#FFFFFF"></path>
                            <path d="M66.9989911,21.1915385 L72.9944599,13.2852115 C73.1536424,13.0757885 73.179681,12.7945385 73.0625074,12.5593269 C72.9449866,12.3241154 72.7042166,12.1754423 72.4408798,12.1754423 L69.6703754,12.1754423 C69.4549496,12.1754423 69.2521958,12.2747885 69.1206142,12.44475 L62.6656513,20.7822115 L62.6656513,7.02328846 C62.6656513,6.64096154 62.3547507,6.33098077 61.9712893,6.33098077 L59.6673961,6.33098077 C59.2839347,6.33098077 58.9730341,6.64096154 58.9730341,7.02328846 L58.9730341,29.4414231 C58.9730341,29.82375 59.2839347,30.1339038 59.6673961,30.1339038 L62.0587789,30.1339038 C62.4422404,30.1339038 62.7529674,29.82375 62.7529674,29.4414231 L62.7529674,26.5129615 L64.7242611,24.0294808 L69.5722967,29.8824231 C69.7042255,30.0416538 69.9005564,30.1339038 70.1076499,30.1339038 L72.9949807,30.1339038 C73.2643932,30.1339038 73.509503,29.9784808 73.6238991,29.7351346 C73.7379481,29.4917885 73.7006261,29.2044808 73.5280772,28.9981731 L66.9989911,21.1915385" id="Fill-8" fill="#FFFFFF"></path>
                            <path d="M78.6260831,6.33098077 L76.4098531,6.33098077 C76.0262181,6.33098077 75.7154911,6.64096154 75.7154911,7.02328846 L75.7154911,29.4414231 C75.7154911,29.8239231 76.0262181,30.1339038 76.4098531,30.1339038 L78.6260831,30.1339038 C79.0095445,30.1339038 79.3204451,29.8239231 79.3204451,29.4414231 L79.3204451,7.02328846 C79.3204451,6.64096154 79.0095445,6.33098077 78.6260831,6.33098077" id="Fill-9" fill="#FFFFFF"></path>
                            <path d="M98.2796528,12.4845577 C98.1510223,12.2915769 97.9338605,12.1754423 97.7014228,12.1754423 L95.3681929,12.1754423 C95.0895801,12.1754423 94.8378739,12.3414231 94.7292062,12.5970577 L89.786043,24.1992692 L85.1055223,12.6091731 C84.999632,12.3471346 84.7446276,12.1754423 84.4613279,12.1754423 L82.0407819,12.1754423 C81.8109481,12.1754423 81.5958694,12.2888077 81.4665445,12.4783269 C81.3373932,12.6676731 81.3104866,12.9089423 81.3948516,13.122 L87.6515742,28.9176923 L85.2447418,34.9726154 C85.1600297,35.1860192 85.1864154,35.4269423 85.3157404,35.6168077 C85.4450653,35.8065 85.6603175,35.9202115 85.8903249,35.9202115 L88.2817077,35.9202115 C88.561362,35.9202115 88.813589,35.7528462 88.9217359,35.496 L98.3416246,13.1358462 C98.4315445,12.9220962 98.4081098,12.6775385 98.2796528,12.4845577" id="Fill-10" fill="#FFFFFF"></path>
                        </g>
                    </g>
                </g>
            </g>
        </g>
    </g>
</svg>
